<svg width="140" height="48" viewBox="0 0 140 48" fill="none" xmlns="http://www.w3.org/2000/svg">
<path fill-rule="evenodd" clip-rule="evenodd" d="M97.562 12.3465C101.635 4.98747 109.481 0 118.493 0C127.519 0 135.374 5.00186 139.442 12.3772C140.251 13.844 139.139 15.5303 137.57 15.5303H122.524C118.046 15.5303 114.416 19.1603 114.416 23.6383C114.416 28.1162 118.046 31.7463 122.524 31.7463H137.857C139.403 31.7463 140.512 33.3836 139.757 34.8473C135.789 42.546 127.758 47.8163 118.493 47.8163C109.612 47.8163 101.865 42.9733 97.743 35.7909H11.7222C5.24818 35.7909 0 30.5427 0 24.0687C0 17.5947 5.2482 12.3465 11.7222 12.3465H97.562ZM12.0739 29.2107C15.034 29.2107 17.4337 26.811 17.4337 23.8509C17.4337 20.8908 15.034 18.4912 12.0739 18.4912C9.1138 18.4912 6.71416 20.8908 6.71416 23.8509C6.71416 26.811 9.1138 29.2107 12.0739 29.2107Z" fill="#313131"/>
<path d="M24.996 29.4954L26.361 29.2609V19.6552L24.996 19.4208V18.3572H34.4174V21.2883H33.0105L32.8765 19.6552H28.0108V23.8593H32.7257V25.1574H28.0108V29.2609L29.3759 29.4954V30.5506H24.996V29.4954Z" fill="white"/>
<path d="M42.5174 19.4208V18.3572H46.8973V19.4208L45.5322 19.6552V29.2609L46.8973 29.4954V30.5506H42.5174V29.4954L43.8824 29.2609V19.6552L42.5174 19.4208Z" fill="white"/>
<path d="M54.8465 29.4954L55.9435 29.3112L59.4106 24.4037L56.0273 19.605L54.9302 19.4208V18.3572H58.883V19.4208L57.9032 19.5296L60.3402 23.1893L62.8024 19.5296L61.8225 19.4208V18.3572H65.8005V19.4208L64.7034 19.605L61.32 24.4037L64.7788 29.3112L65.8842 29.4954V30.5506H61.9398V29.4954L62.9029 29.3866L60.3737 25.6347L57.8362 29.3866L58.816 29.4954V30.5506H54.8465V29.4954Z" fill="white"/>
<path d="M73.691 19.4208V18.3572H78.071V19.4208L76.7059 19.6552V29.2609L78.071 29.4954V30.5506H73.691V29.4954L75.0561 29.2609V19.6552L73.691 19.4208Z" fill="white"/>
<path d="M86.1039 30.5506V29.4954L87.469 29.2609V19.6552L86.1039 19.4208V18.3572H95.4667V21.2883H94.0514L93.9174 19.6552H89.1188V23.5997H93.7834V24.8978H89.1188V29.2609H94.0179L94.1519 27.6279H95.5588V30.5506H86.1039Z" fill="white"/>
</svg>
